<svg id="Capa_1" enable-background="new 0 0 512 512" height="512" viewBox="0 0 512 512" width="512" xmlns="http://www.w3.org/2000/svg"><g><g><g><g><g><g><g><circle cx="256" cy="256" fill="#2864f0" r="256"/></g></g></g></g></g></g><path d="m257.03 511.998c140.579-.554 254.431-114.418 254.968-255l-85.749-85.749-1.055 1.736-76.187-76.187-31.179 60.846-70.734-70.734-18.58 162.645-143.412-4.198 71.03 71.03c-38.67 14.161-69.586 25.128-69.586 25.128z" fill="#27488f"/><g><g><path d="m156.401 122.206c0-28.839 23.379-52.218 52.218-52.218 20.988 0 39.084 12.383 47.381 30.24 8.297-17.858 26.393-30.24 47.381-30.24 28.839 0 52.218 23.379 52.218 52.218 0 52.218-86.643 133.794-86.643 133.794h-25.912s-86.643-84.285-86.643-133.794z" fill="#93d632"/></g><g><path d="m255.986 256h12.97s86.643-81.576 86.643-133.794c0-28.839-23.379-52.218-52.218-52.218-20.988 0-39.083 12.382-47.381 30.24z" fill="#78b22a"/></g><g><path d="m355.599 389.794c0 28.839-23.379 52.218-52.218 52.218-20.988 0-39.084-12.383-47.381-30.24-8.297 17.858-26.393 30.24-47.381 30.24-28.839 0-52.218-23.379-52.218-52.218 0-52.218 86.643-133.794 86.643-133.794h25.912s86.643 84.285 86.643 133.794z" fill="#93d632"/></g><g><path d="m256 411.772c8.297 17.858 26.393 30.24 47.381 30.24 28.839 0 52.218-23.379 52.218-52.218 0-49.509-86.643-133.794-86.643-133.794h-12.97z" fill="#78b22a"/></g></g><g><g><path d="m389.794 156.401c28.839 0 52.218 23.379 52.218 52.218 0 20.988-12.383 39.084-30.24 47.381 17.858 8.297 30.24 26.393 30.24 47.381 0 28.839-23.379 52.218-52.218 52.218-52.218 0-133.794-86.643-133.794-86.643v-25.912s84.285-86.643 133.794-86.643z" fill="#679c20"/></g><g><path d="m122.206 355.599c-28.839 0-52.218-23.379-52.218-52.218 0-20.988 12.383-39.084 30.24-47.381-17.858-8.297-30.24-26.393-30.24-47.381 0-28.839 23.379-52.218 52.218-52.218 52.218 0 133.794 86.643 133.794 86.643v25.912s-84.285 86.643-133.794 86.643z" fill="#78b22a"/></g></g><g><circle cx="256" cy="256" fill="#679c20" r="39.373"/></g><g><path d="m256 216.627c-.005 0-.009 0-.014 0v78.744h.014c21.745 0 39.373-17.628 39.373-39.373s-17.628-39.371-39.373-39.371z" fill="#5b8a1d"/></g></g></svg>